<svg width="296" height="307" fill="none" xmlns="http://www.w3.org/2000/svg"><path d="M262.572 233.636l-.006.138L269.491 307h-50.532l-6.549-44.973-2.883 43.82-51.893-.577 5.512-57.531 4.688-26.667v-.006l.703-4.013h92.657l.121 1.453 1.257 15.13z" fill="#2F2E41"/><path d="M129.031 276.085c5.352.975 10.932-5.052 12.464-13.462.671-3.681.454-7.209-.45-10.094l.821-4.848 13.771-65.216s25.358-50.725 25.357-59.531c0-8.806-7.335-13.125-7.335-13.125l-9.926.093-31.125 76.02-5.606 56.176-.907 7.708c-1.863 2.38-3.309 5.605-3.98 9.286-1.532 8.41 1.564 16.018 6.916 16.993zM229.995 78.385l-9.225-21.333-29.982 5.19-2.018 25.099 41.225-8.956z" fill="#FFB6B6"/><path opacity=".1" d="M229.995 78.385l-9.225-21.333-29.982 5.19-2.018 25.099 41.225-8.956z" fill="#000"/><path d="M295.149 122.782s-21.333-39.784-25.369-43.82c-1.797-1.797-4.621-1.822-7.204-1.298L232.878 67.43l-10.066-5.656-.663 10.76-33.047 5.932c.184-6.562 1.109-9.058 1.109-9.058l-12.108 14.167-23.64 11.531.013.104c-1.735.606-3.379 1.642-4.625 3.356-4.613 6.342-17.298 83.604-17.298 83.604l27.1 5.766 3.688-23.144 2.654 20.837 2.018 38.92s36.901 31.712 54.775 20.18c17.874-11.532 39.784-10.955 39.784-10.955l.547-18.04c.389-.622.607-.987.607-.987l-.577-63.992v-17.027c4.392 6.119 9.693 11.382 15.856 13.847 20.18 8.072 16.144-24.793 16.144-24.793z" fill="#E6E6E6"/><path d="M202.645 65.995c15.233 0 27.583-12.35 27.583-27.583 0-15.234-12.35-27.583-27.583-27.583-15.234 0-27.583 12.35-27.583 27.583 0 15.233 12.349 27.583 27.583 27.583z" fill="#FFB6B6"/><path d="M222.433 46.207s2.398-8.395 7.795-7.795c5.397.6 6.596-4.198 5.397-6.596-1.2-2.399-3.598-14.391-3.598-14.391s1.199-8.395-5.996-9.594c-7.196-1.2-9.594-2.399-10.794-4.797-1.199-2.399-19.188-4.797-25.184-1.2-5.996 3.598-10.793 10.501-14.99 12.446-4.198 1.946-7.796 5.543-5.397 11.54 2.398 5.996 5.877 17.723 5.877 17.723s6.115-2.133 7.315 1.465c1.199 3.597-3.598-1.2 2.398-10.794 5.996-9.594 5.996-19.188 15.59-15.59 9.594 3.598 20.388 2.399 19.188 9.594-1.199 7.196 2.399 17.989 2.399 17.989z" fill="#2F2E41"/><path d="M220.746 264.872H11.265C5.34 264.872.52 260.053.52 254.129V142.853c0-5.924 4.82-10.744 10.744-10.744h209.481c5.924 0 10.744 4.82 10.744 10.744v111.276c0 5.924-4.82 10.743-10.744 10.743z" fill="#fff"/><path d="M220.746 264.872H11.265C5.34 264.872.52 260.053.52 254.129V142.853c0-5.924 4.82-10.744 10.744-10.744h209.481c5.924 0 10.744 4.82 10.744 10.744v111.276c0 5.924-4.82 10.743-10.744 10.743zM11.265 133.903c-4.935 0-8.95 4.015-8.95 8.95v111.276c0 4.935 4.015 8.949 8.95 8.949h209.481c4.935 0 8.949-4.014 8.949-8.949V142.853c0-4.935-4.014-8.95-8.949-8.95H11.265z" fill="#3F3D56"/><path d="M204.578 145.565a2.691 2.691 0 100-5.383 2.691 2.691 0 000 5.383zM211.755 145.565a2.691 2.691 0 100-5.383 2.691 2.691 0 000 5.383zM218.931 145.565a2.691 2.691 0 100-5.383 2.691 2.691 0 000 5.383z" fill="#3F3D56"/><path d="M15.77 186.381c-.741 0-1.345.603-1.345 1.345 0 .362.14.697.394.944.255.262.59.402.952.402h201.366c.742 0 1.345-.604 1.345-1.346a1.3 1.3 0 00-.393-.943 1.314 1.314 0 00-.952-.402H15.771z" fill="#E6E6E6"/><path d="M192.02 185.932v3.588H15.771c-.493 0-.942-.197-1.265-.529a1.753 1.753 0 01-.529-1.265 1.8 1.8 0 011.794-1.794H192.02z" fill="#009EDD"/><path d="M214.894 179.204h-17.941a3.592 3.592 0 01-3.588-3.588 3.592 3.592 0 013.588-3.588h17.941a3.592 3.592 0 013.589 3.588 3.592 3.592 0 01-3.589 3.588zM97.38 160.366H17.118a3.592 3.592 0 01-3.589-3.588 3.592 3.592 0 013.588-3.588h80.265a3.592 3.592 0 013.588 3.588 3.592 3.592 0 01-3.588 3.588zM15.77 226.748c-.741 0-1.345.603-1.345 1.345 0 .362.14.697.394.944.255.262.59.402.952.402h201.366c.742 0 1.345-.604 1.345-1.346 0-.361-.139-.696-.393-.943a1.314 1.314 0 00-.952-.402H15.771z" fill="#E6E6E6"/><path d="M122.947 226.299v3.589H15.771c-.493 0-.942-.198-1.265-.53a1.753 1.753 0 01-.529-1.265 1.8 1.8 0 011.794-1.794h107.176z" fill="#009EDD"/><path d="M214.894 219.571h-17.941a3.592 3.592 0 01-3.588-3.588 3.592 3.592 0 013.588-3.588h17.941a3.592 3.592 0 013.589 3.588 3.592 3.592 0 01-3.589 3.588z" fill="#E6E6E6"/><path d="M246.302 68.118c15.517 0 28.095-12.314 28.095-27.503 0-15.19-12.578-27.503-28.095-27.503-15.516 0-28.094 12.313-28.094 27.503s12.578 27.503 28.094 27.503z" fill="#009EDD"/><path d="M255.837 26.742l-11.22 20.432c-2.384-4.212-4.755-8.43-7.145-12.64-.825-1.453-3.07-.146-2.243 1.312 2.771 4.878 5.512 9.773 8.282 14.652.474.834 1.774.853 2.243 0l12.326-22.445c.805-1.466-1.437-2.778-2.243-1.31z" fill="#fff"/><path d="M285.086 113.109l-27.992-13.39s-1.124-8.962-6.373-12.16c-.892-2.128-1.919-4.467-2.852-6.32-2.306-4.583 1.153-13.232-1.73-13.232-2.882 0-7.144 9.096-6.919 11.531.174 1.87 1.719 5.135 2.038 7.992-3.515 1.326-6.351 3.599-8.216 5.408a6.07 6.07 0 00-1.582 6.06c1.827 6.255 6.395 19.171 12.95 19.171 8.648 0 10.955-1.729 10.955-1.729s17.874 22.486 31.135 24.216c13.262 1.73-1.414-27.547-1.414-27.547z" fill="#FFB6B6"/></svg>