<svg width="448" height="266" fill="none" xmlns="http://www.w3.org/2000/svg"><path d="M318.518 121.335c-3.502-20.96-21.753-36.933-43.741-36.933h-89.921c-21.979 0-40.227 15.96-43.741 36.908a44.087 44.087 0 00-.615 7.37v78.21c0 2.511.209 4.971.615 7.366 2.797 16.689 14.95 30.215 30.896 35.02a44.389 44.389 0 0012.845 1.888h89.921c4.466 0 8.779-.661 12.845-1.888 15.95-4.809 28.107-18.343 30.896-35.045.401-2.387.61-4.838.61-7.341v-78.21c0-2.502-.209-4.957-.61-7.345zm-36.132 127.941a43.475 43.475 0 01-7.609.669h-89.921c-2.596 0-5.137-.23-7.61-.669-20.19-3.586-35.52-21.199-35.52-42.386v-25.96c0-73.355 59.567-95.304 133.051-95.304 23.82 0 43.13 19.276 43.13 43.054v78.21c-57.825 7.725-15.33 38.8-35.521 42.386z" fill="#3F3D56"/><path d="M247.71 143.421l3.459 22.447 50.738-6.907-4.9-26.226-49.297 10.686z" fill="#009EDD"/><path d="M287.53 17.464h-20.978V39.14h20.978V17.464z" fill="#2F2E41"/><path d="M268.466 40.396l5.189-15.54h10.115l.532 15.54h-15.836z" fill="#FFB6B6"/><path opacity=".1" d="M268.466 40.396l5.189-15.54h10.115l.532 15.54h-15.836z" fill="#000"/><path d="M273.944 178.818l-.577 59.858-.576 4.604v6.61l8.648.872.577-13.238s9.225-25.9 6.919-46.044c-2.307-20.145-1.154-14.389-1.154-14.389l-13.837 1.727z" fill="#FFB6B6"/><path d="M279.434 183.518l-21.277 55.966-1.14 4.499-2.409 6.157-8.374-2.328 4.287-12.54s.845-27.476 10.335-45.403c9.489-17.927 6.317-12.984 6.317-12.984l12.261 6.633z" fill="#FFB6B6"/><path d="M268.466 38.67l-15.567 6.906 9.94 51.232-1.571 73.53-10.378 21.872s-1.739 12.508 16.135 4.45c17.874-8.058 38.053-10.36 38.053-10.36l-4.9-33.67-4.325-88.348.577-19.57-12.685-8.057-15.279 2.015z" fill="#2F2E41"/><path d="M259.796 193.009l-17.275-28.868 19.741-67.333-9.363-51.232 16.427-7.02s8.504 8.267 8.504 15.085c0 6.818-18.034 139.368-18.034 139.368zM297.273 187.253L281.592 52.787a8.986 8.986 0 01.837-4.956l4.487-9.275 17.586 5.006-7.069 54.972 18.889 54.096-19.049 34.623z" fill="#E6E6E6"/><path d="M283.169 249.611s-10.955-6.331-12.108-2.878a58.931 58.931 0 00-1.73 6.331S266.448 264 275.097 264c8.648 0 8.072-4.974 8.072-4.974v-9.415zM245.042 246.111s12.512-1.919 12.327 1.717c-.184 3.635-.696 6.525-.696 6.525s-1.299 11.233-9.355 8.093c-8.056-3.141-5.707-7.564-5.707-7.564l3.431-8.771z" fill="#2F2E41"/><path d="M279.387 33.314c7.916 0 14.334-6.406 14.334-14.308s-6.418-14.309-14.334-14.309c-7.916 0-14.334 6.407-14.334 14.309 0 7.902 6.418 14.308 14.334 14.308z" fill="#FFB6B6"/><path d="M290.839 6.255c-.668-3.528-4.295-5.914-7.879-6.213-3.584-.3-7.095 1.052-10.322 2.635-2.188 1.074-4.342 2.284-6.114 3.956-1.772 1.67-3.149 3.854-3.467 6.267-.112.854-.098 1.745-.448 2.532-.437.983-1.376 1.651-1.942 2.566-1.016 1.64-.549 4.028 1.01 5.167-1.96.834-3.975 1.704-5.469 3.22-1.495 1.517-2.358 3.859-1.538 5.822.291.695.77 1.303 1.018 2.014.471 1.35.023 2.883-.812 4.044-.836 1.16-2.015 2.021-3.173 2.861 2.977.583 6.015 1.036 9.035.765 3.021-.272 6.053-1.329 8.24-3.426 2.187-2.097 3.391-5.332 2.606-8.256-.601-2.24-2.283-4.204-2.282-6.523.001-1.783 1.005-3.39 1.975-4.888l6.353-9.809c.381-.588.783-1.196 1.385-1.556 1.024-.612 2.352-.343 3.432.165 1.079.508 2.065 1.237 3.216 1.552 2.35.642 5.075-.834 5.816-3.15" fill="#2F2E41"/><path d="M282.372 35.354c-1.195 1.154-2.916 1.526-4.511 1.994-1.596.468-3.292 1.204-4.01 2.7-.704 1.469-.193 3.332.972 4.47 1.166 1.138 2.859 1.617 4.489 1.595 1.63-.023 3.219-.5 4.752-1.053a46.304 46.304 0 0011.747-6.285c-2.322-.641-3.841-3.347-3.176-5.659.54-1.88 2.194-3.192 3.319-4.793 1.937-2.758 2.259-6.393 1.618-9.7-.641-3.307-2.152-6.372-3.646-9.392-.472-.954-.956-1.925-1.693-2.695-.737-.77-1.78-1.32-2.841-1.21-1.761.183-2.885 2.112-2.897 3.879-.012 1.766.765 3.427 1.354 5.093.606 1.717 1.028 3.536.865 5.35a8.58 8.58 0 01-1.584 4.236c-.691.955-1.571 1.757-2.322 2.665-.581.703-1.096 1.498-1.248 2.396-.278 1.634.682 3.288.419 4.924-.278 1.73-2.102 3.055-3.836 2.787" fill="#2F2E41"/><path d="M238.534 235.198c27.067 0 49.009-21.903 49.009-48.922s-21.942-48.923-49.009-48.923c-27.066 0-49.008 21.904-49.008 48.923 0 27.019 21.942 48.922 49.008 48.922z" fill="#009EDD"/><path d="M252.218 136.518c-.593 4.24-3.266 7.371-5.969 6.993-2.703-.377-4.412-4.12-3.818-8.361a10.722 10.722 0 011.803-4.729l2.742-17.932 8.403 1.464-3.595 17.523c.546 1.622.695 3.351.434 5.042z" fill="#FFB6B6"/><path d="M259.529 44.713s-8.648-2.878-9.801 7.482c-1.154 10.36-2.307 23.023-2.307 23.023s-5.189 12.086-2.883 18.417c2.307 6.331 6.343 1.917 2.307 7.29-4.036 5.372-3.474 23.049-3.474 23.049l12.987-.652s7.207-47.529 7.207-48.68c0-1.151-4.036-29.93-4.036-29.93v.001z" fill="#E6E6E6"/><path d="M315.745 134.594c.161 4.278-1.92 7.828-4.648 7.93-2.727.102-5.067-3.284-5.228-7.563a10.71 10.71 0 01.944-4.971l-.451-18.134 8.529-.031-.46 17.88a10.706 10.706 0 011.314 4.889z" fill="#FFB6B6"/><path d="M302.431 44.519s8.698-2.724 9.666 7.655c.967 10.38 1.894 29.391 1.894 29.391s4.972 12.178 2.553 18.467c-2.42 6.289-6.376 1.803-2.437 7.247 3.939 5.444 2.526 20.795 2.526 20.795l-12.974-.884s-5.82-45.337-5.799-46.488c.02-1.151 4.571-36.183 4.571-36.183z" fill="#E6E6E6"/><path d="M273.373 182.332h-7.231a28.019 28.019 0 00-9.781-16.915c-11.931-9.855-29.591-8.171-39.446 3.76a2.335 2.335 0 103.599 2.969c4.281-5.187 10.761-8.487 18.006-8.487 11.092.001 20.652 7.805 22.874 18.673h-6.377a1.168 1.168 0 00-.896 1.914l9.178 11.017a1.165 1.165 0 001.792 0l9.178-11.017a1.168 1.168 0 00-.896-1.914zM259.799 201.432a2.335 2.335 0 00-3.274.422 23.348 23.348 0 01-13.32 8.007c-12.634 2.586-24.973-5.559-27.56-18.193h6.377a1.167 1.167 0 00.896-1.914l-9.177-11.017a1.167 1.167 0 00-1.793 0l-9.178 11.017a1.168 1.168 0 00.897 1.914h7.231a28.014 28.014 0 009.781 16.915c11.931 9.855 29.591 8.171 39.445-3.76a2.333 2.333 0 00-.325-3.391z" fill="#fff"/><path d="M447.5 264.442H.5v1.36h447v-1.36z" fill="#3F3D56"/></svg>